<svg width="56" height="56" viewBox="0 0 56 56" fill="none" xmlns="http://www.w3.org/2000/svg">
<rect width="56" height="56" rx="16" fill="white"/>
<path d="M39.9354 13.2483C39.6111 12.7516 39.1373 12.7374 38.5974 12.7211C38.5362 12.7193 38.4742 12.7174 38.4115 12.7148C38.3637 12.7126 38.311 12.7135 38.2559 12.7143C38.0369 12.7179 37.7808 12.722 37.6518 12.538C37.5022 12.3247 37.5164 11.9125 37.5281 11.5722C37.5318 11.4647 37.5352 11.3643 37.5332 11.2797C37.5122 10.4892 37.4683 9.6495 37.1632 9.36879C36.9331 9.15818 36.2447 9.18736 35.6099 9.21427C35.4041 9.22299 35.2039 9.23148 35.0268 9.23148H21.5139C21.2418 9.23148 20.9566 9.20932 20.6764 9.18756C20.1303 9.14514 19.6032 9.10419 19.2289 9.23148C18.6856 9.41711 18.6489 10.3925 18.6142 11.3111L18.6124 11.3605C18.5833 12.1188 18.3954 12.7039 17.7726 12.6449C17.0482 12.5775 16.3274 12.5562 15.9999 13.2118C15.6131 13.9875 15.6929 14.7995 15.8357 16.2538C15.8562 16.4615 15.8779 16.6824 15.8997 16.9181H40.1443C40.1582 16.7458 40.1729 16.5757 40.1875 16.4084C40.301 15.0999 40.3999 13.9599 39.9354 13.2483Z" fill="#8047F8"/>
<path fill-rule="evenodd" clip-rule="evenodd" d="M17.7878 18.3605C18.1664 23.4853 18.5409 28.616 18.9155 33.7467L18.9157 33.7499C19.119 36.5357 19.3224 39.3215 19.5264 42.1065H20.3C20.3527 42.5424 20.413 43.0806 20.4766 43.648C20.6057 44.7998 20.7483 46.0723 20.8682 46.8542H20.9538C21.7418 46.5659 27.1891 44.2375 27.1915 34.9677C27.1905 34.9412 27.1914 34.9148 27.1941 34.8886H25.8483C25.7832 34.888 25.72 34.8662 25.6686 34.8267C25.6172 34.7871 25.5803 34.732 25.5637 34.6697C25.4325 34.3457 25.3268 34.0123 25.2474 33.6723C24.4557 34.1194 23.827 34.8022 23.4509 35.6233C23.0938 34.7824 23.0471 33.8441 23.3188 32.9726C23.5906 32.101 24.1635 31.3515 24.9374 30.8552C24.9474 28.1502 25.9602 25.5427 27.784 23.5262L27.8125 23.5012C27.8655 23.4554 27.9334 23.4299 28.0038 23.4293C28.0445 23.4297 28.0847 23.4383 28.1218 23.4548C28.1594 23.4715 28.193 23.4959 28.2205 23.5262C30.0657 25.5454 31.0731 28.178 31.0418 30.8989C31.8302 31.3815 32.4148 32.1304 32.687 33.0067C32.9592 33.883 32.9006 34.8272 32.522 35.664C32.148 34.8416 31.5187 34.1582 30.7255 33.7129C30.6771 34.0425 30.5878 34.3648 30.4598 34.6728C30.4156 34.8042 30.327 34.8886 30.2384 34.8886H28.8032C28.8055 34.9043 28.8071 34.9201 28.808 34.9359L28.8086 34.9396V34.9472C28.8091 34.9609 28.8091 34.9746 28.8086 34.9883C28.8282 44.5242 34.6199 46.6887 35.1081 46.8542H35.2751C35.3177 46.1031 35.4565 45.0667 35.5918 44.0563C35.685 43.36 35.7766 42.6761 35.8339 42.1065H36.6164C36.8669 38.5985 37.1245 35.1004 37.3821 31.6023L37.3823 31.6004L37.3824 31.5993C37.7119 27.1248 38.0414 22.6501 38.356 18.1546H17.8379C17.7788 18.1661 17.7828 18.2627 17.7878 18.3605ZM28.0038 23.4293L28.0023 23.4293H28.0054L28.0038 23.4293Z" fill="#8047F8"/>
</svg>
